<svg width="18" height="18" viewBox="0 0 18 18" fill="none" xmlns="http://www.w3.org/2000/svg">
<path d="M9 9.75C8.7875 9.75 8.6095 9.678 8.466 9.534C8.3225 9.39 8.2505 9.212 8.25 9C8.2495 8.788 8.3215 8.61 8.466 8.466C8.6105 8.322 8.7885 8.25 9 8.25C9.2115 8.25 9.38975 8.322 9.53475 8.466C9.67975 8.61 9.7515 8.788 9.75 9C9.7485 9.212 9.6765 9.39025 9.534 9.53475C9.3915 9.67925 9.2135 9.751 9 9.75ZM9.00225 15.75C8.06875 15.75 7.19125 15.573 6.36975 15.219C5.54825 14.8645 4.8335 14.3835 4.2255 13.776C3.6175 13.1685 3.13625 12.4545 2.78175 11.634C2.42725 10.8135 2.25 9.93625 2.25 9.00225C2.25 8.06825 2.42725 7.19075 2.78175 6.36975C3.13575 5.54825 3.616 4.8335 4.2225 4.2255C4.829 3.6175 5.54325 3.13625 6.36525 2.78175C7.18725 2.42725 8.06475 2.25 8.99775 2.25C9.93075 2.25 10.8083 2.42725 11.6302 2.78175C12.4517 3.13575 13.1665 3.61625 13.7745 4.22325C14.3825 4.83025 14.8638 5.5445 15.2183 6.366C15.5728 7.1875 15.75 8.06475 15.75 8.99775C15.75 9.93075 15.573 10.8083 15.219 11.6302C14.865 12.4522 14.384 13.167 13.776 13.7745C13.168 14.382 12.454 14.8633 11.634 15.2183C10.814 15.5732 9.93675 15.7505 9.00225 15.75ZM9 15C10.675 15 12.0937 14.4187 13.2562 13.2562C14.4187 12.0937 15 10.675 15 9C15 7.325 14.4187 5.90625 13.2562 4.74375C12.0937 3.58125 10.675 3 9 3C7.325 3 5.90625 3.58125 4.74375 4.74375C3.58125 5.90625 3 7.325 3 9C3 10.675 3.58125 12.0937 4.74375 13.2562C5.90625 14.4187 7.325 15 9 15ZM9 15C7.325 15 5.90625 14.4187 4.74375 13.2562C3.58125 12.0937 3 10.675 3 9C3 7.325 3.58125 5.90625 4.74375 4.74375C5.90625 3.58125 7.325 3 9 3C10.675 3 12.0937 3.58125 13.2562 4.74375C14.4187 5.90625 15 7.325 15 9C15 10.675 14.4187 12.0937 13.2562 13.2562C12.0937 14.4187 10.675 15 9 15ZM9.939 10.1797C9.995 10.1518 10.0423 10.1188 10.0807 10.0807C10.1188 10.0417 10.1518 9.9945 10.1797 9.939L12.186 6.204C12.258 6.079 12.2443 5.967 12.1448 5.868C12.0453 5.7695 11.9292 5.7515 11.7968 5.814L8.061 7.82025C8.0055 7.84825 7.9585 7.8815 7.92 7.92C7.8815 7.958 7.84825 8.005 7.82025 8.061L5.814 11.796C5.742 11.931 5.75525 12.0477 5.85375 12.1462C5.95225 12.2448 6.06875 12.258 6.20325 12.186L9.939 10.1797Z" fill="#E2EAEE"/>
</svg>
