<svg width="18" height="18" viewBox="0 0 18 18" fill="none" xmlns="http://www.w3.org/2000/svg">
<g clip-path="url(#clip0_56_620)">
<path d="M9.00002 15.75C8.77421 15.7497 8.55372 15.6815 8.36721 15.5542C5.60428 13.6786 4.40791 12.3926 3.74803 11.5886C2.34178 9.87469 1.66854 8.11512 1.68752 6.20965C1.70967 4.02609 3.46151 2.25 5.59268 2.25C7.14237 2.25 8.21569 3.12293 8.84077 3.84996C8.86057 3.87276 8.88503 3.89104 8.91251 3.90357C8.93998 3.9161 8.96983 3.92258 9.00002 3.92258C9.03022 3.92258 9.06007 3.9161 9.08754 3.90357C9.11502 3.89104 9.13948 3.87276 9.15928 3.84996C9.78436 3.12223 10.8577 2.25 12.4074 2.25C14.5385 2.25 16.2904 4.02609 16.3125 6.21C16.3315 8.11582 15.6576 9.87539 14.252 11.5889C13.5921 12.3929 12.3958 13.6789 9.63284 15.5545C9.44629 15.6817 9.2258 15.7498 9.00002 15.75Z" fill="#ECF1F3"/>
</g>
<defs>
<clipPath id="clip0_56_620">
<rect width="18" height="18" fill="white"/>
</clipPath>
</defs>
</svg>
