<svg width="15" height="14" viewBox="0 0 15 14" fill="none" xmlns="http://www.w3.org/2000/svg">
<g clip-path="url(#clip0_53_268)">
<path d="M5.37701 0.460421C3.97819 0.945683 2.77185 1.86673 1.93519 3.08827C1.09852 4.30981 0.675626 5.76745 0.728619 7.2471C0.781612 8.72675 1.3077 10.1504 2.22961 11.309C3.15152 12.4675 4.42066 13.2999 5.8506 13.6839C7.00989 13.983 8.22449 13.9961 9.38998 13.7221C10.4458 13.485 11.4219 12.9777 12.2228 12.25C13.0563 11.4694 13.6613 10.4764 13.9728 9.37777C14.3113 8.18303 14.3716 6.9266 14.1489 5.70495H7.63888V8.40542H11.409C11.3337 8.83613 11.1722 9.2472 10.9343 9.61405C10.6964 9.9809 10.3869 10.296 10.0244 10.5404C9.56397 10.845 9.045 11.0499 8.50076 11.142C7.95492 11.2435 7.39504 11.2435 6.8492 11.142C6.29597 11.0276 5.77262 10.7993 5.31248 10.4715C4.57327 9.94825 4.01822 9.20487 3.72654 8.34745C3.42993 7.47398 3.42993 6.52702 3.72654 5.65355C3.93416 5.04128 4.27739 4.48382 4.7306 4.02276C5.24925 3.48546 5.90587 3.10139 6.62843 2.91269C7.35099 2.724 8.11156 2.73797 8.8267 2.95308C9.38535 3.12457 9.89622 3.4242 10.3186 3.82808C10.7437 3.40516 11.1681 2.98115 11.5917 2.55605C11.8104 2.32745 12.0489 2.1098 12.2644 1.87573C11.6197 1.27579 10.8629 0.808952 10.0375 0.501983C8.53434 -0.043809 6.88964 -0.0584766 5.37701 0.460421Z" fill="white"/>
<path d="M5.37704 0.460464C6.88954 -0.058786 8.53424 -0.0445045 10.0375 0.500933C10.8631 0.809987 11.6195 1.27907 12.2633 1.88125C12.0445 2.11531 11.8138 2.33406 11.5906 2.56156C11.1663 2.9852 10.7422 3.40739 10.3186 3.82812C9.89624 3.42424 9.38538 3.12461 8.82672 2.95312C8.11182 2.73726 7.35127 2.72248 6.62853 2.9104C5.90578 3.09832 5.24875 3.48169 4.72954 4.01843C4.27632 4.47949 3.9331 5.03695 3.72547 5.64921L1.45813 3.89375C2.2697 2.28436 3.67489 1.0533 5.37704 0.460464Z" fill="#E33629"/>
<path d="M0.856569 5.63286C0.978436 5.02889 1.18076 4.44398 1.45813 3.8938L3.72548 5.65364C3.42887 6.52712 3.42887 7.47407 3.72548 8.34755C2.97006 8.93088 2.21428 9.51713 1.45813 10.1063C0.763765 8.72414 0.551995 7.14935 0.856569 5.63286Z" fill="#F8BD00"/>
<path d="M7.63891 5.70386H14.1489C14.3716 6.9255 14.3114 8.18193 13.9728 9.37667C13.6614 10.4753 13.0563 11.4683 12.2228 12.2489C11.4911 11.6779 10.7561 11.1114 10.0244 10.5404C10.3872 10.2957 10.6968 9.9803 10.9347 9.61306C11.1727 9.24583 11.334 8.83433 11.4091 8.40323H7.63891C7.63782 7.50417 7.63891 6.60401 7.63891 5.70386Z" fill="#587DBD"/>
<path d="M1.45703 10.1063C2.21318 9.52295 2.96896 8.9367 3.72438 8.34753C4.01663 9.20525 4.57247 9.94867 5.3125 10.4716C5.77407 10.7978 6.29855 11.0243 6.8525 11.1366C7.39834 11.2381 7.95822 11.2381 8.50406 11.1366C9.04831 11.0445 9.56728 10.8396 10.0277 10.535C10.7594 11.106 11.4944 11.6725 12.2261 12.2435C11.4254 12.9716 10.4492 13.4793 9.39328 13.7168C8.22779 13.9907 7.0132 13.9776 5.85391 13.6785C4.93702 13.4337 4.08058 13.0021 3.33828 12.4108C2.5526 11.787 1.91089 11.0009 1.45703 10.1063Z" fill="#20BF55"/>
</g>
<defs>
<clipPath id="clip0_53_268">
<rect width="14" height="14" fill="white" transform="translate(0.5)"/>
</clipPath>
</defs>
</svg>
