<svg width="18" height="18" viewBox="0 0 18 18" fill="none" xmlns="http://www.w3.org/2000/svg">
<path d="M9.77288 1.41982C9.564 1.22234 9.28745 1.1123 9 1.1123C8.71255 1.1123 8.436 1.22234 8.22713 1.41982L2.77763 6.57007C2.61077 6.72796 2.4779 6.91827 2.38718 7.12931C2.29645 7.34036 2.24977 7.56772 2.25 7.79744V14.0637C2.2503 14.511 2.42822 14.94 2.74466 15.2562C3.06109 15.5724 3.49014 15.7501 3.9375 15.7501H5.625C6.07255 15.7501 6.50178 15.5723 6.81824 15.2558C7.13471 14.9393 7.3125 14.5101 7.3125 14.0626V11.2501C7.3125 11.1009 7.37176 10.9578 7.47725 10.8523C7.58274 10.7468 7.72582 10.6876 7.875 10.6876H10.125C10.2742 10.6876 10.4173 10.7468 10.5227 10.8523C10.6282 10.9578 10.6875 11.1009 10.6875 11.2501V14.0626C10.6875 14.5101 10.8653 14.9393 11.1818 15.2558C11.4982 15.5723 11.9274 15.7501 12.375 15.7501H14.0625C14.5101 15.7501 14.9393 15.5723 15.2557 15.2558C15.5722 14.9393 15.75 14.5101 15.75 14.0626V7.79631C15.7499 7.5667 15.703 7.33951 15.6121 7.12866C15.5212 6.91781 15.3882 6.72774 15.2213 6.57007L9.77288 1.41982Z" fill="#E2EAEE"/>
</svg>
