<svg width="46" height="45" viewBox="0 0 46 45" fill="none" xmlns="http://www.w3.org/2000/svg">
    <rect x="0.5" width="45" height="45" rx="22.5" fill="white"/>
    <path fill-rule="evenodd" clip-rule="evenodd" d="M4.40173 9.83689C6.90626 6.1585 10.4453 3.30539 14.5714 1.63836C17.2485 0.55673 20.1082 0.000727308 22.9943 7.1307e-07C23.0616 -1.62371e-05 23.129 0.000268996 23.1963 0.000856789C26.151 0.0266413 29.0716 0.634132 31.7914 1.78864C34.5113 2.94315 36.9771 4.62207 39.0481 6.72954C41.1191 8.83701 42.7548 11.3318 43.8616 14.0713C45.5287 18.1974 45.9347 22.7251 45.0285 27.0819C44.1223 31.4388 41.9445 35.429 38.7705 38.5481C35.5964 41.6672 31.5688 43.7751 27.1968 44.6051C25.8328 44.8641 24.4544 44.995 23.0789 44.9999C23.0526 45 23.0263 45 23 45C22.9788 45 22.9577 45 22.9365 44.9999C19.9513 44.9915 16.9828 44.3889 14.2085 43.2113C10.1122 41.4726 6.62351 38.5581 4.18356 34.8366C1.77951 31.1698 0.499985 26.8818 0.5 22.5C0.5 22.4346 0.500286 22.3691 0.500857 22.3036C0.539691 17.8537 1.8972 13.5153 4.40173 9.83689ZM0.5 22.5C0.5 10.0755 10.5705 0.00307023 22.9943 7.1307e-07C22.9962 2.45246e-07 22.9981 8.49118e-09 23 8.49118e-09C35.4264 8.49118e-09 45.5 10.0736 45.5 22.5C45.5 34.9001 35.469 44.9573 23.0789 44.9999C23.0315 45 22.984 45 22.9365 44.9999C10.5393 44.9657 0.5 34.9052 0.5 22.5ZM36.1114 28.3928C36.2088 28.2381 36.2748 28.0658 36.3057 27.8857C36.3065 27.8811 36.3064 27.8765 36.3054 27.872C36.3044 27.8677 36.3043 27.8632 36.3049 27.8588C36.3593 27.4924 36.2671 27.1191 36.0481 26.8201C35.8279 26.5192 35.4973 26.318 35.1289 26.2605C28.2865 25.1156 21.1449 27.0982 13.9275 32.1304C13.6246 32.3412 13.4179 32.6638 13.3528 33.0271C13.2877 33.3904 13.3696 33.7646 13.5805 34.0675C13.7914 34.3704 14.1139 34.5771 14.4772 34.6422C14.8405 34.7073 15.2148 34.6254 15.5177 34.4145C22.1417 29.8235 28.5598 28.0143 34.6793 29.0217C34.8613 29.0551 35.0482 29.0519 35.2291 29.0124C35.4099 28.9728 35.581 28.8976 35.7325 28.7913C35.884 28.6849 36.0128 28.5494 36.1114 28.3928ZM35.8387 22.3099C36.2166 22.0378 36.4727 21.6284 36.5519 21.1695C36.5928 20.9455 36.5913 20.7148 36.5434 20.4923C36.4954 20.2697 36.4041 20.0588 36.2746 19.8715C36.145 19.6843 35.9799 19.5244 35.7885 19.401C35.5972 19.2776 35.3834 19.1932 35.1594 19.1525C30.8232 18.5808 26.4165 18.8796 22.1972 20.0314C17.9778 21.1832 14.0305 23.1649 10.5862 25.8605C10.4076 26.003 10.2589 26.1794 10.1485 26.3794C10.0381 26.5795 9.96823 26.7993 9.94279 27.0263C9.91735 27.2534 9.93688 27.4832 10.0003 27.7027C10.0637 27.9223 10.1697 28.1271 10.3122 28.3057C10.4548 28.4842 10.6311 28.6329 10.8312 28.7433C11.0312 28.8537 11.251 28.9236 11.4781 28.9491C11.7051 28.9745 11.935 28.955 12.1545 28.8916C12.374 28.8282 12.5789 28.7222 12.7574 28.5796C18.9464 23.8018 26.7718 21.6614 34.5309 22.6242C34.9912 22.6948 35.4608 22.5819 35.8387 22.3099ZM9.15239 22.5279C14.7964 17.9859 26.0394 13.8778 34.3809 15.1475C34.6524 15.1926 34.9294 15.1801 35.1968 15.1151C35.4641 15.05 35.7156 14.9315 35.936 14.7667C36.1565 14.602 36.3413 14.3943 36.4794 14.1563C36.6175 13.9182 36.706 13.6547 36.7396 13.3816C36.7826 13.1094 36.7715 12.8315 36.7067 12.5636C36.642 12.2958 36.5251 12.0434 36.3626 11.8209C36.2001 11.5984 35.9953 11.4102 35.7598 11.2671C35.5244 11.1239 35.263 11.0287 34.9907 10.9869C25.4101 9.52135 12.9673 14.0293 6.49458 19.2531C6.06031 19.6056 5.78384 20.1161 5.72598 20.6724C5.66813 21.2287 5.83362 21.7852 6.18607 22.2194C6.53852 22.6537 7.04904 22.9302 7.60533 22.988C8.16163 23.0459 8.71812 22.8804 9.15239 22.5279Z" fill="#141414"/>
    <path d="M32.7059 10.041V10.0408L32.7051 8.73936C32.7051 8.73927 32.7051 8.73919 32.7051 8.7391C32.7049 7.72607 31.4801 7.21881 30.7637 7.93519L29.2695 9.42941C29.0213 9.67758 28.8819 10.0141 28.8818 10.3651L28.8803 21.7666V21.7666V29.109C28.8803 29.2634 28.7988 29.4163 28.6272 29.5388C28.4522 29.6638 28.2165 29.7293 27.9984 29.7081C27.8532 29.694 27.706 29.6868 27.5574 29.6868C26.3453 29.6868 25.185 30.18 24.3312 31.0544C23.4777 31.9284 23 33.1116 23 34.3433C23 35.5749 23.4777 36.7581 24.3312 37.6321C25.185 38.5065 26.3453 38.9997 27.5574 38.9997C28.7695 38.9997 29.9298 38.5065 30.7837 37.6321C31.203 37.2027 31.6756 36.5514 32.0446 35.864C32.4076 35.1878 32.7059 34.4111 32.7059 33.7413V10.041Z" fill="#141414" stroke="white" stroke-width="0.882353" stroke-linejoin="round"/>
</svg>
