<svg width="18" height="18" viewBox="0 0 18 18" fill="none" xmlns="http://www.w3.org/2000/svg">
<g clip-path="url(#clip0_56_624)">
<path fill-rule="evenodd" clip-rule="evenodd" d="M6.80528 0.244385C6.6848 0.246118 6.5665 0.27667 6.46025 0.333485C6.354 0.3903 6.2629 0.471726 6.19456 0.570956C6.12616 0.670021 6.07206 0.778227 6.03385 0.892385C5.97856 1.04667 5.93099 1.24596 5.88856 1.4221L5.87185 1.4851C5.76385 1.92996 5.65842 2.29124 5.50799 2.49567C5.41324 2.60335 5.29949 2.6927 5.17242 2.75924C4.97594 2.87053 4.77285 2.96972 4.56428 3.05624L4.40228 3.12567C4.24828 3.18959 4.09608 3.25776 3.94585 3.3301C3.85842 3.37253 3.74656 3.43296 3.65013 3.5101C3.55585 3.58064 3.47884 3.6717 3.42494 3.77639C3.37104 3.88108 3.34165 3.99666 3.33899 4.11438C3.33899 4.46667 3.58842 4.66724 3.64885 4.7161C3.74656 4.79324 3.85842 4.85367 3.94456 4.89738C4.07442 4.96167 4.24285 5.03367 4.40228 5.10181L4.56428 5.17124C4.78542 5.26638 4.9937 5.36281 5.17242 5.46696C5.29913 5.53402 5.41245 5.62379 5.50671 5.73181C5.65842 5.93624 5.76385 6.29753 5.87185 6.74238L5.88856 6.80667C5.93099 6.98024 5.97856 7.17953 6.03385 7.33381C6.07206 7.44797 6.12616 7.55618 6.19456 7.65524C6.27171 7.76324 6.46842 7.98181 6.80528 7.98181C7.14342 7.98181 7.34013 7.76324 7.41728 7.65653C7.48568 7.55746 7.53978 7.44926 7.57799 7.3351C7.63328 7.17953 7.68085 6.98024 7.72328 6.80539L7.73871 6.7411C7.84799 6.29753 7.95342 5.93624 8.10385 5.73181C8.1986 5.62413 8.31235 5.53479 8.43942 5.46824C8.63548 5.35699 8.83814 5.25781 9.04628 5.17124L9.20956 5.10181C9.36899 5.03367 9.53742 4.96167 9.66599 4.89738C9.75342 4.85367 9.86528 4.79453 9.96171 4.71738C10.056 4.64684 10.133 4.55578 10.1869 4.45109C10.2408 4.3464 10.2702 4.23082 10.2728 4.1131C10.27 3.99592 10.2406 3.88092 10.1869 3.77671C10.1333 3.6725 10.0567 3.58179 9.96299 3.51138C9.87048 3.44091 9.77096 3.38016 9.66599 3.3301C9.53742 3.26581 9.36899 3.19381 9.20956 3.12567L9.04628 3.05624C8.83817 2.9701 8.63551 2.87134 8.43942 2.76053C8.31271 2.69347 8.19939 2.60369 8.10513 2.49567C7.95342 2.29124 7.84799 1.92996 7.73871 1.4851L7.72328 1.42081C7.68311 1.24293 7.63463 1.06702 7.57799 0.89367C7.53989 0.779065 7.48578 0.670419 7.41728 0.570956C7.34867 0.471788 7.2573 0.390503 7.15082 0.333907C7.04434 0.277312 6.92585 0.247055 6.80528 0.24567V0.244385ZM7.34271 9.52467C7.74967 9.42452 8.12058 9.21269 8.41362 8.91306C8.70667 8.61343 8.9102 8.23791 9.00128 7.82881L9.00771 7.80567C9.04915 7.62954 9.09848 7.45537 9.15556 7.28367C9.21445 7.10086 9.28444 6.92182 9.36513 6.74753L9.38313 6.73467C9.48728 6.66396 9.63256 6.58038 9.80356 6.49424C9.99337 6.39918 10.1873 6.31252 10.3847 6.23453L10.413 6.22167C10.9348 6.028 11.3663 5.6478 11.6241 5.15453L16.0174 3.93567L16.0238 3.93438C16.2348 3.87736 16.456 3.8691 16.6706 3.91022C16.8852 3.95133 17.0876 4.04076 17.2626 4.17171C17.4375 4.30266 17.5803 4.47171 17.6803 4.66605C17.7802 4.86039 17.8346 5.07492 17.8393 5.29338V12.7852C17.8251 13.3464 17.6355 13.889 17.2972 14.3369C16.9589 14.7848 16.4888 15.1155 15.953 15.2826C15.4171 15.4498 14.8423 15.4449 14.3094 15.2686C13.7764 15.0924 13.3121 14.7537 12.9814 14.3001C12.6508 13.8465 12.4705 13.3007 12.4659 12.7394C12.4613 12.1781 12.6326 11.6295 12.9557 11.1705C13.2789 10.7115 13.7376 10.3652 14.2676 10.1803C14.7976 9.9953 15.3722 9.98096 15.9107 10.1392V8.27496L9.26999 10.1187V15.1805C9.26999 15.7448 9.09236 16.2947 8.7623 16.7524C8.43223 17.21 7.96648 17.5522 7.43107 17.7303C6.89566 17.9084 6.31776 17.9134 5.77932 17.7447C5.24088 17.576 4.76922 17.242 4.4312 16.7902C4.09319 16.3384 3.90598 15.7917 3.89612 15.2275C3.88625 14.6633 4.05424 14.1104 4.37625 13.647C4.69826 13.1837 5.15797 12.8334 5.69018 12.646C6.22239 12.4585 6.80011 12.4434 7.34142 12.6027L7.34271 9.52467ZM2.52385 7.58453C2.77959 7.58453 3.02486 7.68612 3.2057 7.86696C3.38654 8.0478 3.48813 8.29307 3.48813 8.54881V9.04253H3.98185C4.23759 9.04253 4.48286 9.14412 4.6637 9.32496C4.84454 9.5058 4.94613 9.75107 4.94613 10.0068C4.94613 10.2626 4.84454 10.5078 4.6637 10.6887C4.48286 10.8695 4.23759 10.9711 3.98185 10.9711H3.48813V11.4648C3.48813 11.7206 3.38654 11.9658 3.2057 12.1467C3.02486 12.3275 2.77959 12.4291 2.52385 12.4291C2.2681 12.4291 2.02283 12.3275 1.842 12.1467C1.66116 11.9658 1.55956 11.7206 1.55956 11.4648V10.9711H1.06585C0.810104 10.9711 0.564834 10.8695 0.383995 10.6887C0.203157 10.5078 0.101563 10.2626 0.101562 10.0068C0.101562 9.75107 0.203157 9.5058 0.383995 9.32496C0.564834 9.14412 0.810104 9.04253 1.06585 9.04253H1.55956V8.5501C1.55956 8.29435 1.66116 8.04908 1.842 7.86825C2.02283 7.68741 2.2681 7.58453 2.52385 7.58453Z" fill="#ECF1F3"/>
</g>
<defs>
<clipPath id="clip0_56_624">
<rect width="18" height="18" fill="white"/>
</clipPath>
</defs>
</svg>
