<svg width="18" height="18" viewBox="0 0 18 18" fill="none" xmlns="http://www.w3.org/2000/svg">
<path d="M7.50003 1.5C6.56145 1.5005 5.63609 1.72119 4.7983 2.14432C3.96052 2.56745 3.23368 3.18122 2.67622 3.93631C2.11875 4.69139 1.74621 5.56673 1.58852 6.49196C1.43083 7.4172 1.49241 8.36652 1.76829 9.26363C2.04417 10.1607 2.52667 10.9806 3.17701 11.6574C3.82734 12.3341 4.62737 12.8489 5.51279 13.1602C6.39822 13.4716 7.34434 13.5709 8.27511 13.4501C9.20589 13.3294 10.0954 12.992 10.872 12.465L14.58 16.17C14.683 16.2805 14.8072 16.3692 14.9452 16.4307C15.0832 16.4922 15.2322 16.5252 15.3832 16.5279C15.5343 16.5306 15.6843 16.5028 15.8244 16.4462C15.9645 16.3896 16.0918 16.3054 16.1986 16.1986C16.3054 16.0917 16.3896 15.9645 16.4462 15.8244C16.5028 15.6843 16.5306 15.5343 16.5279 15.3832C16.5253 15.2322 16.4922 15.0832 16.4307 14.9452C16.3692 14.8072 16.2806 14.683 16.17 14.58L12.465 10.872C13.078 9.96987 13.4334 8.91773 13.4932 7.8287C13.5529 6.73968 13.3147 5.65496 12.8041 4.69119C12.2936 3.72742 11.5299 2.92105 10.5954 2.35878C9.66083 1.7965 8.59069 1.4996 7.50003 1.5ZM3.75003 7.5C3.75003 6.50544 4.14512 5.55161 4.84838 4.84835C5.55164 4.14509 6.50547 3.75 7.50003 3.75C8.49459 3.75 9.44842 4.14509 10.1517 4.84835C10.8549 5.55161 11.25 6.50544 11.25 7.5C11.25 8.49456 10.8549 9.44839 10.1517 10.1517C9.44842 10.8549 8.49459 11.25 7.50003 11.25C6.50547 11.25 5.55164 10.8549 4.84838 10.1517C4.14512 9.44839 3.75003 8.49456 3.75003 7.5Z" fill="#E2EAEE"/>
</svg>
