<svg width="18" height="18" viewBox="0 0 18 18" fill="none" xmlns="http://www.w3.org/2000/svg">
<path d="M9.00898 1.6875C9.55948 1.6935 10.1077 1.75725 10.6455 1.87725C10.7599 1.90279 10.8634 1.96343 10.9417 2.0507C11.02 2.13796 11.069 2.2475 11.082 2.364L11.2095 3.50925C11.2275 3.67071 11.2831 3.8257 11.372 3.96173C11.4608 4.09776 11.5803 4.21105 11.7209 4.29247C11.8615 4.37389 12.0192 4.42117 12.1814 4.43051C12.3436 4.43985 12.5057 4.41099 12.6547 4.34625L13.7047 3.885C13.8114 3.83801 13.9301 3.82533 14.0443 3.84871C14.1585 3.87209 14.2626 3.93037 14.3422 4.0155C15.1013 4.82637 15.6667 5.79872 15.996 6.8595C16.0304 6.97105 16.0292 7.09055 15.9927 7.20142C15.9561 7.31228 15.886 7.40903 15.792 7.47825L14.8612 8.16525C14.7301 8.26138 14.6235 8.38704 14.5499 8.53207C14.4764 8.6771 14.4381 8.83741 14.4381 9C14.4381 9.16259 14.4764 9.3229 14.5499 9.46793C14.6235 9.61296 14.7301 9.73862 14.8612 9.83475L15.7935 10.521C15.8876 10.5903 15.9579 10.6871 15.9944 10.7982C16.031 10.9092 16.0321 11.0288 15.9975 11.1405C15.6684 12.2012 15.1033 13.1736 14.3445 13.9845C14.265 14.0696 14.161 14.1279 14.047 14.1514C13.9329 14.1749 13.8144 14.1625 13.7077 14.1157L12.6532 13.653C12.5044 13.5878 12.3423 13.5585 12.1801 13.5675C12.0179 13.5765 11.8601 13.6236 11.7194 13.705C11.5788 13.7863 11.4592 13.8996 11.3705 14.0358C11.2818 14.1719 11.2264 14.327 11.2087 14.4885L11.0812 15.633C11.0685 15.7481 11.0205 15.8565 10.9439 15.9434C10.8672 16.0302 10.7656 16.0913 10.653 16.1182C9.5667 16.3772 8.43476 16.3772 7.34848 16.1182C7.23568 16.0914 7.13392 16.0304 7.05713 15.9436C6.98033 15.8567 6.93226 15.7482 6.91948 15.633L6.79273 14.49C6.77432 14.329 6.7184 14.1745 6.62948 14.039C6.54056 13.9035 6.4211 13.7908 6.2807 13.7098C6.1403 13.6289 5.98287 13.582 5.82106 13.5729C5.65925 13.5638 5.49756 13.5928 5.34898 13.6575L4.29448 14.1195C4.18772 14.1664 4.06903 14.179 3.95482 14.1554C3.84061 14.1319 3.73653 14.0735 3.65698 13.9882C2.89807 13.1764 2.33316 12.203 2.00473 11.1412C1.97015 11.0296 1.97122 10.9099 2.00778 10.7989C2.04434 10.6879 2.11457 10.591 2.20873 10.5218L3.14098 9.83475C3.27211 9.73862 3.37876 9.61296 3.45227 9.46793C3.52578 9.3229 3.56408 9.16259 3.56408 9C3.56408 8.83741 3.52578 8.6771 3.45227 8.53207C3.37876 8.38704 3.27211 8.26138 3.14098 8.16525L2.20873 7.47975C2.11457 7.41048 2.04434 7.31361 2.00778 7.20259C1.97122 7.09156 1.97015 6.97191 2.00473 6.86025C2.33401 5.79947 2.89942 4.82712 3.65848 4.01625C3.73812 3.93112 3.84224 3.87284 3.95644 3.84946C4.07065 3.82608 4.18929 3.83876 4.29598 3.88575L5.34598 4.347C5.49524 4.4117 5.6576 4.4405 5.82001 4.43107C5.98243 4.42163 6.14036 4.37424 6.28113 4.2927C6.4219 4.21115 6.54159 4.09772 6.63057 3.96153C6.71955 3.82534 6.77535 3.67017 6.79348 3.5085L6.92098 2.364C6.93385 2.24727 6.98293 2.13749 7.06135 2.05006C7.13976 1.96263 7.24358 1.90194 7.35823 1.8765C7.89523 1.7575 8.44548 1.6945 9.00898 1.6875ZM8.99998 6.75C8.40324 6.75 7.83095 6.98705 7.40899 7.40901C6.98703 7.83097 6.74998 8.40326 6.74998 9C6.74998 9.59674 6.98703 10.169 7.40899 10.591C7.83095 11.0129 8.40324 11.25 8.99998 11.25C9.59672 11.25 10.169 11.0129 10.591 10.591C11.0129 10.169 11.25 9.59674 11.25 9C11.25 8.40326 11.0129 7.83097 10.591 7.40901C10.169 6.98705 9.59672 6.75 8.99998 6.75Z" fill="#E2EAEE"/>
</svg>
