<svg width="18" height="18" viewBox="0 0 18 18" fill="none" xmlns="http://www.w3.org/2000/svg">
<g clip-path="url(#clip0_55_589)">
<path d="M12.75 4.125C12.4517 4.125 12.1655 4.24353 11.9545 4.4545C11.7436 4.66548 11.625 4.95163 11.625 5.25C11.625 5.54837 11.7436 5.83452 11.9545 6.0455C12.1655 6.25647 12.4517 6.375 12.75 6.375H13.0343L10.5 8.90925L7.92003 6.32925C7.70909 6.11857 7.42316 6.00024 7.12503 6.00024C6.8269 6.00024 6.54097 6.11857 6.33003 6.32925L1.45503 11.2043C1.25 11.4163 1.13647 11.7005 1.13889 11.9954C1.14132 12.2904 1.2595 12.5726 1.46798 12.7813C1.67647 12.99 1.95858 13.1084 2.25355 13.1111C2.54852 13.1138 2.83276 13.0006 3.04503 12.7958L7.12503 8.71575L9.70503 11.2957C9.91597 11.5064 10.2019 11.6248 10.5 11.6248C10.7982 11.6248 11.0841 11.5064 11.295 11.2957L14.625 7.96575V8.25C14.625 8.54837 14.7436 8.83452 14.9545 9.0455C15.1655 9.25647 15.4517 9.375 15.75 9.375C16.0484 9.375 16.3345 9.25647 16.5455 9.0455C16.7565 8.83452 16.875 8.54837 16.875 8.25V5.25C16.875 4.95163 16.7565 4.66548 16.5455 4.4545C16.3345 4.24353 16.0484 4.125 15.75 4.125H12.75Z" fill="#E2EAEE"/>
</g>
<defs>
<clipPath id="clip0_55_589">
<rect width="18" height="18" fill="white"/>
</clipPath>
</defs>
</svg>
